<svg viewBox="0 0 24 24" fill="none" xmlns="http://www.w3.org/2000/svg">
<path fill-rule="evenodd" clip-rule="evenodd" d="M12 4C7.58172 4 4 7.58172 4 12C4 16.4183 7.58172 20 12 20C16.4183 20 20 16.4183 20 12C20 7.58172 16.4183 4 12 4ZM2 12C2 6.47715 6.47715 2 12 2C17.5228 2 22 6.47715 22 12C22 17.5228 17.5228 22 12 22C6.47715 22 2 17.5228 2 12Z" fill="black"/>
<path fill-rule="evenodd" clip-rule="evenodd" d="M10.0139 10.6999C10.1828 10.4184 10.4184 10.1828 10.6999 10.0139L15.4856 7.1425C15.9592 6.85836 16.5734 7.01192 16.8576 7.48551C17.1417 7.95909 16.9882 8.57335 16.5146 8.85749L11.7289 11.7289L8.85753 16.5145C8.57338 16.9881 7.95912 17.1416 7.48554 16.8575C7.01196 16.5733 6.8584 15.9591 7.14255 15.4855L10.0139 10.6999Z" fill="black"/>
<path fill-rule="evenodd" clip-rule="evenodd" d="M14.0172 13.5938C13.8286 13.9311 13.5462 14.2065 13.2044 14.3867L8.46621 16.8847C7.97766 17.1422 7.37282 16.955 7.11525 16.4664C6.85769 15.9779 7.04494 15.3731 7.53349 15.1155L12.2716 12.6175L15.127 7.51198C15.3966 7.02996 16.0059 6.85774 16.4879 7.12732C16.9699 7.3969 17.1421 8.00619 16.8725 8.48822L14.0172 13.5938Z" fill="black"/>
</svg>
