<?xml version="1.0" encoding="iso-8859-1"?>
<!-- Generator: Adobe Illustrator 19.0.0, SVG Export Plug-In . SVG Version: 6.00 Build 0)  -->
<svg version="1.1" id="Capa_1" xmlns="http://www.w3.org/2000/svg" xmlns:xlink="http://www.w3.org/1999/xlink" x="0px" y="0px"
	 viewBox="0 0 490.1 490.1" style="enable-background:new 0 0 490.1 490.1;" xml:space="preserve">
<g>
	<g>
		<g>
			<g>
				<path d="M418.4,418.4c-95.6,95.6-251.1,95.6-346.7,0s-95.6-251.1,0-346.7s251.1-95.6,346.7,0S514,322.8,418.4,418.4z
					 M115.8,115.8c-71.2,71.2-71.2,187.1,0,258.3s187.1,71.2,258.3,0s71.2-187.1,0-258.3S187.1,44.6,115.8,115.8z"/>
			</g>
		</g>
		<path d="M334.1,170.6c4-9.1-5.2-18.3-14.3-14.3l-91,51.4c-9.1,5.2-16.7,12.7-21.9,21.8l-51.2,89.9c-4,9.1,5.2,18.3,14.3,14.3
			l90.8-51.4c9.1-5.1,16.6-12.6,21.8-21.7L334.1,170.6z"/>
	</g>
</g>
<g>
</g>
<g>
</g>
<g>
</g>
<g>
</g>
<g>
</g>
<g>
</g>
<g>
</g>
<g>
</g>
<g>
</g>
<g>
</g>
<g>
</g>
<g>
</g>
<g>
</g>
<g>
</g>
<g>
</g>
</svg>
