<?xml version="1.0" encoding="iso-8859-1"?>
<!-- Generator: Adobe Illustrator 19.0.0, SVG Export Plug-In . SVG Version: 6.00 Build 0)  -->
<svg version="1.1" id="Layer_1" xmlns="http://www.w3.org/2000/svg" xmlns:xlink="http://www.w3.org/1999/xlink" x="0px" y="0px"
	 viewBox="0 0 482.087 482.087" style="enable-background:new 0 0 482.087 482.087;" xml:space="preserve">
<g>
	<path d="M28.313,306.181c-0.061,0.114-0.12,0.229-0.181,0.343c-0.463,0.868-0.914,1.743-1.355,2.625
		c-0.099,0.198-0.198,0.397-0.296,0.596c-0.455,0.923-0.898,1.852-1.328,2.789c-0.033,0.073-0.068,0.145-0.102,0.218
		c-0.477,1.046-0.938,2.101-1.383,3.164c-0.046,0.11-0.09,0.221-0.135,0.332c-0.379,0.913-0.746,1.833-1.101,2.758
		c-0.09,0.234-0.179,0.469-0.267,0.703c-0.337,0.896-0.664,1.796-0.978,2.702c-0.054,0.156-0.111,0.311-0.164,0.467
		c-0.369,1.077-0.722,2.161-1.059,3.252c-0.036,0.117-0.069,0.236-0.105,0.353c-0.287,0.943-0.561,1.891-0.824,2.844
		c-0.076,0.277-0.151,0.555-0.225,0.833c-0.231,0.864-0.452,1.731-0.663,2.603c-0.057,0.235-0.116,0.469-0.172,0.704
		c-0.258,1.099-0.502,2.203-0.728,3.314c-0.024,0.12-0.045,0.241-0.069,0.36c-0.194,0.973-0.375,1.951-0.543,2.933
		c-0.055,0.318-0.106,0.637-0.158,0.956c-0.137,0.839-0.264,1.682-0.382,2.528c-0.042,0.298-0.086,0.595-0.125,0.894
		c-0.147,1.12-0.282,2.243-0.396,3.373c-0.009,0.092-0.016,0.185-0.025,0.276c-0.102,1.032-0.187,2.069-0.26,3.109
		c-0.024,0.342-0.044,0.684-0.065,1.027c-0.051,0.834-0.093,1.67-0.126,2.508c-0.013,0.341-0.029,0.681-0.039,1.022
		c-0.034,1.144-0.057,2.29-0.057,3.442c0,61.934,50.207,112.14,112.139,112.14h20V247.074h-20
		C84.391,247.074,47.234,270.996,28.313,306.181z"/>
	<path d="M467.087,359.213c0-1.152-0.023-2.298-0.057-3.442c-0.01-0.341-0.026-0.681-0.039-1.022
		c-0.033-0.839-0.075-1.675-0.126-2.508c-0.021-0.343-0.041-0.685-0.065-1.027c-0.073-1.04-0.159-2.077-0.26-3.109
		c-0.009-0.092-0.015-0.185-0.025-0.276c-0.114-1.13-0.249-2.253-0.396-3.373c-0.039-0.299-0.083-0.596-0.125-0.894
		c-0.118-0.845-0.245-1.688-0.382-2.528c-0.052-0.319-0.104-0.638-0.158-0.956c-0.169-0.982-0.349-1.96-0.543-2.933
		c-0.024-0.12-0.045-0.241-0.069-0.36c-0.226-1.111-0.47-2.215-0.728-3.314c-0.055-0.235-0.115-0.469-0.172-0.704
		c-0.211-0.872-0.431-1.74-0.663-2.603c-0.074-0.278-0.149-0.556-0.225-0.833c-0.263-0.953-0.537-1.901-0.824-2.844
		c-0.036-0.117-0.069-0.236-0.105-0.353c-0.337-1.092-0.69-2.176-1.059-3.252c-0.053-0.156-0.11-0.311-0.164-0.467
		c-0.315-0.906-0.641-1.807-0.978-2.702c-0.089-0.235-0.177-0.469-0.267-0.703c-0.356-0.925-0.722-1.845-1.101-2.758
		c-0.046-0.11-0.089-0.222-0.135-0.332c-0.445-1.063-0.906-2.118-1.383-3.164c-0.033-0.073-0.068-0.145-0.102-0.218
		c-0.43-0.937-0.873-1.866-1.328-2.789c-0.098-0.199-0.197-0.398-0.296-0.596c-0.441-0.882-0.892-1.757-1.355-2.625
		c-0.061-0.114-0.12-0.229-0.181-0.343c-18.921-35.185-56.078-59.107-98.826-59.107h-20v224.278h20
		C416.88,471.353,467.087,421.146,467.087,359.213z"/>
	<path d="M411.487,81.334c-45.527-45.527-106.058-70.6-170.443-70.6S116.127,35.807,70.6,81.334C25.073,126.861,0,187.393,0,251.778
		v43.724c6.751-13.438,15.688-25.853,26.632-36.796c1.106-1.106,2.233-2.184,3.368-3.249v-3.679
		c0-116.37,94.674-211.044,211.043-211.044s211.043,94.674,211.043,211.044v3.679c1.136,1.065,2.262,2.143,3.368,3.249
		c10.943,10.943,19.881,23.358,26.632,36.796v-43.724C482.087,187.393,457.014,126.861,411.487,81.334z"/>
</g>
<g>
</g>
<g>
</g>
<g>
</g>
<g>
</g>
<g>
</g>
<g>
</g>
<g>
</g>
<g>
</g>
<g>
</g>
<g>
</g>
<g>
</g>
<g>
</g>
<g>
</g>
<g>
</g>
<g>
</g>
</svg>
