<?xml version="1.0" encoding="iso-8859-1"?>
<!-- Generator: Adobe Illustrator 18.1.1, SVG Export Plug-In . SVG Version: 6.00 Build 0)  -->
<svg version="1.1" id="Capa_1" xmlns="http://www.w3.org/2000/svg" xmlns:xlink="http://www.w3.org/1999/xlink" x="0px" y="0px"
	 viewBox="0 0 30.51 30.51" style="enable-background:new 0 0 30.51 30.51;" xml:space="preserve">
<g>
	<g id="c79_earphones">
		<path d="M30.51,18.256c0-0.77-0.586-1.39-1.318-1.429l0.002-0.039c0.016-0.231,0.033-0.469,0.033-0.707
			c0-4.501-1.516-8.364-4.373-11.184c-2.717-2.674-5.508-4.143-9.596-4.143c-4.084,0-6.875,1.469-9.592,4.144
			C2.807,7.714,1.291,11.58,1.291,16.082c0,0.173,0.012,0.348,0.018,0.522l0.006,0.224C0.584,16.871,0,17.486,0,18.256v9.586
			c0,0.799,0.619,1.449,1.387,1.449H1.86c0.271,0.296,0.645,0.466,1.039,0.466h1.414c0.805,0,1.463-0.68,1.463-1.521v-10.37
			c0-0.842-0.658-1.522-1.463-1.522H3.361C3.449,9.179,7.732,2.83,15.549,2.83c6.998,0,11.494,6.325,11.602,13.513H26.2
			c-0.805,0-1.461,0.681-1.461,1.522v10.37c0,0.841,0.656,1.521,1.461,1.521h1.416c0.393,0,0.762-0.166,1.029-0.466h0.48
			c0.766,0,1.385-0.65,1.385-1.449V18.256z"/>
	</g>
	<g id="Capa_1_244_">
	</g>
</g>
<g>
</g>
<g>
</g>
<g>
</g>
<g>
</g>
<g>
</g>
<g>
</g>
<g>
</g>
<g>
</g>
<g>
</g>
<g>
</g>
<g>
</g>
<g>
</g>
<g>
</g>
<g>
</g>
<g>
</g>
</svg>
