<svg width="229" height="229" viewBox="0 0 229 229" fill="none" xmlns="http://www.w3.org/2000/svg">
<path d="M202.41 39.377L189.932 39.6244C170.582 19.7781 143.575 7.44873 113.681 7.44873C84.3704 7.44873 57.7906 19.3217 38.5679 38.4826L22.2121 38.8126L18.2928 38.8917V42.8118V66.6524C11.1896 80.8989 7.20686 96.975 7.20686 113.963C7.20686 172.771 54.8733 220.437 113.681 220.437C135.947 220.437 156.619 213.608 173.713 201.917L206.606 202.538L214.26 202.682L210.008 196.317L198.239 178.7C212.003 160.765 220.196 138.321 220.196 113.963C220.196 91.491 213.245 70.6255 201.344 53.4588L205.964 45.3578L209.455 39.2373L202.41 39.377Z" fill="#085C97" stroke="white" stroke-width="8"/>
<path d="M155.525 182.535H187.251L136.417 100.862L186.122 50.2293L150.849 49.9874L97.1126 103.724V73.0461L114.205 73.0864L136.095 50.189H30.9599V72.8446L70.7483 72.9655V182.454H97.1126V140.852L117.349 120.252L155.525 182.535Z" fill="white"/>
</svg>
